<mxfile host="app.diagrams.net" modified="2024-05-22T11:58:56.938Z" agent="Mozilla/5.0 (Windows NT 10.0; Win64; x64) AppleWebKit/537.36 (KHTML, like Gecko) Chrome/125.0.0.0 Safari/537.36 Edg/125.0.0.0" etag="NK9O5c81fccBQCnFGD_A" version="24.4.5" type="github">
  <diagram name="第 1 页" id="OT760YooN6m4Zd85Qt1a">
    <mxGraphModel dx="573" dy="306" grid="1" gridSize="10" guides="1" tooltips="1" connect="1" arrows="1" fold="1" page="1" pageScale="1" pageWidth="1000" pageHeight="1000" math="0" shadow="0">
      <root>
        <mxCell id="0" />
        <mxCell id="1" parent="0" />
        <mxCell id="K7ZoPV0VoYnB4C3HnUxC-18" style="edgeStyle=none;rounded=0;orthogonalLoop=1;jettySize=auto;html=1;exitX=1;exitY=0.5;exitDx=0;exitDy=0;entryX=0;entryY=0.5;entryDx=0;entryDy=0;" edge="1" parent="1" source="K7ZoPV0VoYnB4C3HnUxC-1" target="K7ZoPV0VoYnB4C3HnUxC-4">
          <mxGeometry relative="1" as="geometry" />
        </mxCell>
        <mxCell id="K7ZoPV0VoYnB4C3HnUxC-26" value="2" style="edgeLabel;html=1;align=center;verticalAlign=middle;resizable=0;points=[];" vertex="1" connectable="0" parent="K7ZoPV0VoYnB4C3HnUxC-18">
          <mxGeometry x="-0.154" y="2" relative="1" as="geometry">
            <mxPoint as="offset" />
          </mxGeometry>
        </mxCell>
        <mxCell id="K7ZoPV0VoYnB4C3HnUxC-20" style="edgeStyle=none;rounded=0;orthogonalLoop=1;jettySize=auto;html=1;exitX=1;exitY=1;exitDx=0;exitDy=0;" edge="1" parent="1" source="K7ZoPV0VoYnB4C3HnUxC-1" target="K7ZoPV0VoYnB4C3HnUxC-5">
          <mxGeometry relative="1" as="geometry" />
        </mxCell>
        <mxCell id="K7ZoPV0VoYnB4C3HnUxC-27" value="1" style="edgeLabel;html=1;align=center;verticalAlign=middle;resizable=0;points=[];" vertex="1" connectable="0" parent="K7ZoPV0VoYnB4C3HnUxC-20">
          <mxGeometry x="-0.031" relative="1" as="geometry">
            <mxPoint as="offset" />
          </mxGeometry>
        </mxCell>
        <mxCell id="K7ZoPV0VoYnB4C3HnUxC-1" value="s" style="ellipse;whiteSpace=wrap;html=1;aspect=fixed;fontSize=14;" vertex="1" parent="1">
          <mxGeometry x="180" y="150" width="30" height="30" as="geometry" />
        </mxCell>
        <mxCell id="K7ZoPV0VoYnB4C3HnUxC-31" style="edgeStyle=none;rounded=0;orthogonalLoop=1;jettySize=auto;html=1;exitX=1;exitY=0.5;exitDx=0;exitDy=0;entryX=0;entryY=0.5;entryDx=0;entryDy=0;" edge="1" parent="1" source="K7ZoPV0VoYnB4C3HnUxC-3" target="K7ZoPV0VoYnB4C3HnUxC-7">
          <mxGeometry relative="1" as="geometry" />
        </mxCell>
        <mxCell id="K7ZoPV0VoYnB4C3HnUxC-60" value="1" style="edgeLabel;html=1;align=center;verticalAlign=middle;resizable=0;points=[];" vertex="1" connectable="0" parent="K7ZoPV0VoYnB4C3HnUxC-31">
          <mxGeometry x="-0.209" relative="1" as="geometry">
            <mxPoint as="offset" />
          </mxGeometry>
        </mxCell>
        <mxCell id="K7ZoPV0VoYnB4C3HnUxC-33" style="edgeStyle=none;rounded=0;orthogonalLoop=1;jettySize=auto;html=1;exitX=1;exitY=1;exitDx=0;exitDy=0;entryX=0;entryY=0;entryDx=0;entryDy=0;" edge="1" parent="1" source="K7ZoPV0VoYnB4C3HnUxC-3" target="K7ZoPV0VoYnB4C3HnUxC-8">
          <mxGeometry relative="1" as="geometry" />
        </mxCell>
        <mxCell id="K7ZoPV0VoYnB4C3HnUxC-61" value="1" style="edgeLabel;html=1;align=center;verticalAlign=middle;resizable=0;points=[];" vertex="1" connectable="0" parent="K7ZoPV0VoYnB4C3HnUxC-33">
          <mxGeometry x="-0.0764" y="-1" relative="1" as="geometry">
            <mxPoint as="offset" />
          </mxGeometry>
        </mxCell>
        <mxCell id="K7ZoPV0VoYnB4C3HnUxC-37" style="edgeStyle=none;rounded=0;orthogonalLoop=1;jettySize=auto;html=1;exitX=0.5;exitY=1;exitDx=0;exitDy=0;entryX=0;entryY=0;entryDx=0;entryDy=0;" edge="1" parent="1" source="K7ZoPV0VoYnB4C3HnUxC-3" target="K7ZoPV0VoYnB4C3HnUxC-9">
          <mxGeometry relative="1" as="geometry" />
        </mxCell>
        <mxCell id="K7ZoPV0VoYnB4C3HnUxC-62" value="1" style="edgeLabel;html=1;align=center;verticalAlign=middle;resizable=0;points=[];" vertex="1" connectable="0" parent="K7ZoPV0VoYnB4C3HnUxC-37">
          <mxGeometry x="-0.1789" relative="1" as="geometry">
            <mxPoint as="offset" />
          </mxGeometry>
        </mxCell>
        <mxCell id="K7ZoPV0VoYnB4C3HnUxC-3" value="d1" style="ellipse;whiteSpace=wrap;html=1;aspect=fixed;fontSize=14;" vertex="1" parent="1">
          <mxGeometry x="270" y="80" width="30" height="30" as="geometry" />
        </mxCell>
        <mxCell id="K7ZoPV0VoYnB4C3HnUxC-34" style="edgeStyle=none;rounded=0;orthogonalLoop=1;jettySize=auto;html=1;exitX=1;exitY=0.5;exitDx=0;exitDy=0;entryX=0;entryY=0.5;entryDx=0;entryDy=0;" edge="1" parent="1" source="K7ZoPV0VoYnB4C3HnUxC-4" target="K7ZoPV0VoYnB4C3HnUxC-8">
          <mxGeometry relative="1" as="geometry" />
        </mxCell>
        <mxCell id="K7ZoPV0VoYnB4C3HnUxC-63" value="1" style="edgeLabel;html=1;align=center;verticalAlign=middle;resizable=0;points=[];" vertex="1" connectable="0" parent="K7ZoPV0VoYnB4C3HnUxC-34">
          <mxGeometry x="0.1992" y="2" relative="1" as="geometry">
            <mxPoint as="offset" />
          </mxGeometry>
        </mxCell>
        <mxCell id="K7ZoPV0VoYnB4C3HnUxC-4" value="d2" style="ellipse;whiteSpace=wrap;html=1;aspect=fixed;fontSize=14;" vertex="1" parent="1">
          <mxGeometry x="270" y="150" width="30" height="30" as="geometry" />
        </mxCell>
        <mxCell id="K7ZoPV0VoYnB4C3HnUxC-35" style="edgeStyle=none;rounded=0;orthogonalLoop=1;jettySize=auto;html=1;exitX=1;exitY=0;exitDx=0;exitDy=0;entryX=0;entryY=1;entryDx=0;entryDy=0;" edge="1" parent="1" source="K7ZoPV0VoYnB4C3HnUxC-5" target="K7ZoPV0VoYnB4C3HnUxC-8">
          <mxGeometry relative="1" as="geometry" />
        </mxCell>
        <mxCell id="K7ZoPV0VoYnB4C3HnUxC-64" value="1" style="edgeLabel;html=1;align=center;verticalAlign=middle;resizable=0;points=[];" vertex="1" connectable="0" parent="K7ZoPV0VoYnB4C3HnUxC-35">
          <mxGeometry x="-0.1698" relative="1" as="geometry">
            <mxPoint as="offset" />
          </mxGeometry>
        </mxCell>
        <mxCell id="K7ZoPV0VoYnB4C3HnUxC-5" value="d3" style="ellipse;whiteSpace=wrap;html=1;aspect=fixed;fontSize=14;" vertex="1" parent="1">
          <mxGeometry x="270" y="220" width="30" height="30" as="geometry" />
        </mxCell>
        <mxCell id="K7ZoPV0VoYnB4C3HnUxC-57" style="edgeStyle=none;rounded=0;orthogonalLoop=1;jettySize=auto;html=1;exitX=1;exitY=0.5;exitDx=0;exitDy=0;entryX=0;entryY=0.5;entryDx=0;entryDy=0;" edge="1" parent="1" source="K7ZoPV0VoYnB4C3HnUxC-7" target="K7ZoPV0VoYnB4C3HnUxC-41">
          <mxGeometry relative="1" as="geometry" />
        </mxCell>
        <mxCell id="K7ZoPV0VoYnB4C3HnUxC-66" value="1" style="edgeLabel;html=1;align=center;verticalAlign=middle;resizable=0;points=[];" vertex="1" connectable="0" parent="K7ZoPV0VoYnB4C3HnUxC-57">
          <mxGeometry x="-0.2364" y="2" relative="1" as="geometry">
            <mxPoint as="offset" />
          </mxGeometry>
        </mxCell>
        <mxCell id="K7ZoPV0VoYnB4C3HnUxC-7" value="g1s" style="ellipse;whiteSpace=wrap;html=1;aspect=fixed;fontSize=14;" vertex="1" parent="1">
          <mxGeometry x="370" y="80" width="30" height="30" as="geometry" />
        </mxCell>
        <mxCell id="K7ZoPV0VoYnB4C3HnUxC-58" style="edgeStyle=none;rounded=0;orthogonalLoop=1;jettySize=auto;html=1;exitX=1;exitY=0.5;exitDx=0;exitDy=0;entryX=0;entryY=0.5;entryDx=0;entryDy=0;" edge="1" parent="1" source="K7ZoPV0VoYnB4C3HnUxC-8" target="K7ZoPV0VoYnB4C3HnUxC-43">
          <mxGeometry relative="1" as="geometry" />
        </mxCell>
        <mxCell id="K7ZoPV0VoYnB4C3HnUxC-65" value="1" style="edgeLabel;html=1;align=center;verticalAlign=middle;resizable=0;points=[];" vertex="1" connectable="0" parent="K7ZoPV0VoYnB4C3HnUxC-58">
          <mxGeometry x="-0.165" y="1" relative="1" as="geometry">
            <mxPoint as="offset" />
          </mxGeometry>
        </mxCell>
        <mxCell id="K7ZoPV0VoYnB4C3HnUxC-8" value="g2s" style="ellipse;whiteSpace=wrap;html=1;aspect=fixed;fontSize=14;" vertex="1" parent="1">
          <mxGeometry x="370" y="150" width="30" height="30" as="geometry" />
        </mxCell>
        <mxCell id="K7ZoPV0VoYnB4C3HnUxC-59" style="edgeStyle=none;rounded=0;orthogonalLoop=1;jettySize=auto;html=1;exitX=1;exitY=0.5;exitDx=0;exitDy=0;entryX=0;entryY=0.5;entryDx=0;entryDy=0;" edge="1" parent="1" source="K7ZoPV0VoYnB4C3HnUxC-9" target="K7ZoPV0VoYnB4C3HnUxC-46">
          <mxGeometry relative="1" as="geometry" />
        </mxCell>
        <mxCell id="K7ZoPV0VoYnB4C3HnUxC-67" value="1" style="edgeLabel;html=1;align=center;verticalAlign=middle;resizable=0;points=[];" vertex="1" connectable="0" parent="K7ZoPV0VoYnB4C3HnUxC-59">
          <mxGeometry x="-0.165" y="1" relative="1" as="geometry">
            <mxPoint as="offset" />
          </mxGeometry>
        </mxCell>
        <mxCell id="K7ZoPV0VoYnB4C3HnUxC-9" value="g3s" style="ellipse;whiteSpace=wrap;html=1;aspect=fixed;fontSize=14;" vertex="1" parent="1">
          <mxGeometry x="370" y="220" width="30" height="30" as="geometry" />
        </mxCell>
        <mxCell id="K7ZoPV0VoYnB4C3HnUxC-17" style="edgeStyle=none;rounded=0;orthogonalLoop=1;jettySize=auto;html=1;exitX=1;exitY=0;exitDx=0;exitDy=0;entryX=0.04;entryY=0.722;entryDx=0;entryDy=0;entryPerimeter=0;" edge="1" parent="1" source="K7ZoPV0VoYnB4C3HnUxC-1" target="K7ZoPV0VoYnB4C3HnUxC-3">
          <mxGeometry relative="1" as="geometry" />
        </mxCell>
        <mxCell id="K7ZoPV0VoYnB4C3HnUxC-25" value="1" style="edgeLabel;html=1;align=center;verticalAlign=middle;resizable=0;points=[];" vertex="1" connectable="0" parent="K7ZoPV0VoYnB4C3HnUxC-17">
          <mxGeometry x="0.1296" y="1" relative="1" as="geometry">
            <mxPoint as="offset" />
          </mxGeometry>
        </mxCell>
        <mxCell id="K7ZoPV0VoYnB4C3HnUxC-40" style="edgeStyle=none;rounded=0;orthogonalLoop=1;jettySize=auto;html=1;exitX=1;exitY=0.5;exitDx=0;exitDy=0;entryX=0;entryY=0.5;entryDx=0;entryDy=0;" edge="1" parent="1" source="K7ZoPV0VoYnB4C3HnUxC-41" target="K7ZoPV0VoYnB4C3HnUxC-49">
          <mxGeometry relative="1" as="geometry" />
        </mxCell>
        <mxCell id="K7ZoPV0VoYnB4C3HnUxC-68" value="1" style="edgeLabel;html=1;align=center;verticalAlign=middle;resizable=0;points=[];" vertex="1" connectable="0" parent="K7ZoPV0VoYnB4C3HnUxC-40">
          <mxGeometry x="-0.2171" relative="1" as="geometry">
            <mxPoint as="offset" />
          </mxGeometry>
        </mxCell>
        <mxCell id="K7ZoPV0VoYnB4C3HnUxC-41" value="g1t" style="ellipse;whiteSpace=wrap;html=1;aspect=fixed;fontSize=14;" vertex="1" parent="1">
          <mxGeometry x="480" y="80" width="30" height="30" as="geometry" />
        </mxCell>
        <mxCell id="K7ZoPV0VoYnB4C3HnUxC-42" style="edgeStyle=none;rounded=0;orthogonalLoop=1;jettySize=auto;html=1;exitX=1;exitY=0;exitDx=0;exitDy=0;entryX=0;entryY=1;entryDx=0;entryDy=0;" edge="1" parent="1" source="K7ZoPV0VoYnB4C3HnUxC-43" target="K7ZoPV0VoYnB4C3HnUxC-49">
          <mxGeometry relative="1" as="geometry" />
        </mxCell>
        <mxCell id="K7ZoPV0VoYnB4C3HnUxC-69" value="1" style="edgeLabel;html=1;align=center;verticalAlign=middle;resizable=0;points=[];" vertex="1" connectable="0" parent="K7ZoPV0VoYnB4C3HnUxC-42">
          <mxGeometry x="-0.1024" y="-1" relative="1" as="geometry">
            <mxPoint as="offset" />
          </mxGeometry>
        </mxCell>
        <mxCell id="K7ZoPV0VoYnB4C3HnUxC-43" value="g2t" style="ellipse;whiteSpace=wrap;html=1;aspect=fixed;fontSize=14;" vertex="1" parent="1">
          <mxGeometry x="480" y="150" width="30" height="30" as="geometry" />
        </mxCell>
        <mxCell id="K7ZoPV0VoYnB4C3HnUxC-44" style="edgeStyle=none;rounded=0;orthogonalLoop=1;jettySize=auto;html=1;exitX=1;exitY=0;exitDx=0;exitDy=0;entryX=0;entryY=0.5;entryDx=0;entryDy=0;" edge="1" parent="1" source="K7ZoPV0VoYnB4C3HnUxC-46" target="K7ZoPV0VoYnB4C3HnUxC-52">
          <mxGeometry relative="1" as="geometry" />
        </mxCell>
        <mxCell id="K7ZoPV0VoYnB4C3HnUxC-70" value="1" style="edgeLabel;html=1;align=center;verticalAlign=middle;resizable=0;points=[];" vertex="1" connectable="0" parent="K7ZoPV0VoYnB4C3HnUxC-44">
          <mxGeometry x="0.1972" relative="1" as="geometry">
            <mxPoint as="offset" />
          </mxGeometry>
        </mxCell>
        <mxCell id="K7ZoPV0VoYnB4C3HnUxC-45" style="edgeStyle=none;rounded=0;orthogonalLoop=1;jettySize=auto;html=1;exitX=1;exitY=0.5;exitDx=0;exitDy=0;entryX=0;entryY=0.5;entryDx=0;entryDy=0;" edge="1" parent="1" source="K7ZoPV0VoYnB4C3HnUxC-46" target="K7ZoPV0VoYnB4C3HnUxC-55">
          <mxGeometry relative="1" as="geometry" />
        </mxCell>
        <mxCell id="K7ZoPV0VoYnB4C3HnUxC-71" value="1" style="edgeLabel;html=1;align=center;verticalAlign=middle;resizable=0;points=[];" vertex="1" connectable="0" parent="K7ZoPV0VoYnB4C3HnUxC-45">
          <mxGeometry x="0.0441" y="1" relative="1" as="geometry">
            <mxPoint as="offset" />
          </mxGeometry>
        </mxCell>
        <mxCell id="K7ZoPV0VoYnB4C3HnUxC-46" value="g3t" style="ellipse;whiteSpace=wrap;html=1;aspect=fixed;fontSize=14;" vertex="1" parent="1">
          <mxGeometry x="480" y="220" width="30" height="30" as="geometry" />
        </mxCell>
        <mxCell id="K7ZoPV0VoYnB4C3HnUxC-47" style="edgeStyle=none;rounded=0;orthogonalLoop=1;jettySize=auto;html=1;exitX=1;exitY=1;exitDx=0;exitDy=0;entryX=0;entryY=0;entryDx=0;entryDy=0;" edge="1" parent="1" source="K7ZoPV0VoYnB4C3HnUxC-49" target="K7ZoPV0VoYnB4C3HnUxC-56">
          <mxGeometry relative="1" as="geometry" />
        </mxCell>
        <mxCell id="K7ZoPV0VoYnB4C3HnUxC-48" value="2" style="edgeLabel;html=1;align=center;verticalAlign=middle;resizable=0;points=[];" vertex="1" connectable="0" parent="K7ZoPV0VoYnB4C3HnUxC-47">
          <mxGeometry x="-0.2539" y="1" relative="1" as="geometry">
            <mxPoint as="offset" />
          </mxGeometry>
        </mxCell>
        <mxCell id="K7ZoPV0VoYnB4C3HnUxC-49" value="c1" style="ellipse;whiteSpace=wrap;html=1;aspect=fixed;fontSize=14;" vertex="1" parent="1">
          <mxGeometry x="580" y="80" width="30" height="30" as="geometry" />
        </mxCell>
        <mxCell id="K7ZoPV0VoYnB4C3HnUxC-50" style="edgeStyle=none;rounded=0;orthogonalLoop=1;jettySize=auto;html=1;exitX=1;exitY=0.5;exitDx=0;exitDy=0;entryX=0;entryY=0.5;entryDx=0;entryDy=0;" edge="1" parent="1" source="K7ZoPV0VoYnB4C3HnUxC-52" target="K7ZoPV0VoYnB4C3HnUxC-56">
          <mxGeometry relative="1" as="geometry" />
        </mxCell>
        <mxCell id="K7ZoPV0VoYnB4C3HnUxC-51" value="1" style="edgeLabel;html=1;align=center;verticalAlign=middle;resizable=0;points=[];" vertex="1" connectable="0" parent="K7ZoPV0VoYnB4C3HnUxC-50">
          <mxGeometry x="-0.2016" y="1" relative="1" as="geometry">
            <mxPoint as="offset" />
          </mxGeometry>
        </mxCell>
        <mxCell id="K7ZoPV0VoYnB4C3HnUxC-52" value="c2" style="ellipse;whiteSpace=wrap;html=1;aspect=fixed;fontSize=14;" vertex="1" parent="1">
          <mxGeometry x="580" y="150" width="30" height="30" as="geometry" />
        </mxCell>
        <mxCell id="K7ZoPV0VoYnB4C3HnUxC-53" style="edgeStyle=none;rounded=0;orthogonalLoop=1;jettySize=auto;html=1;exitX=1;exitY=0;exitDx=0;exitDy=0;entryX=0;entryY=1;entryDx=0;entryDy=0;" edge="1" parent="1" source="K7ZoPV0VoYnB4C3HnUxC-55" target="K7ZoPV0VoYnB4C3HnUxC-56">
          <mxGeometry relative="1" as="geometry">
            <Array as="points" />
          </mxGeometry>
        </mxCell>
        <mxCell id="K7ZoPV0VoYnB4C3HnUxC-54" value="2" style="edgeLabel;html=1;align=center;verticalAlign=middle;resizable=0;points=[];" vertex="1" connectable="0" parent="K7ZoPV0VoYnB4C3HnUxC-53">
          <mxGeometry x="-0.0321" relative="1" as="geometry">
            <mxPoint as="offset" />
          </mxGeometry>
        </mxCell>
        <mxCell id="K7ZoPV0VoYnB4C3HnUxC-55" value="c3" style="ellipse;whiteSpace=wrap;html=1;aspect=fixed;fontSize=14;" vertex="1" parent="1">
          <mxGeometry x="580" y="220" width="30" height="30" as="geometry" />
        </mxCell>
        <mxCell id="K7ZoPV0VoYnB4C3HnUxC-56" value="t" style="ellipse;whiteSpace=wrap;html=1;aspect=fixed;fontSize=14;" vertex="1" parent="1">
          <mxGeometry x="680" y="150" width="30" height="30" as="geometry" />
        </mxCell>
      </root>
    </mxGraphModel>
  </diagram>
</mxfile>
